<svg width="1920" height="109" viewBox="0 0 1920 109" fill="none" xmlns="http://www.w3.org/2000/svg">
<rect y="-0.000488281" width="640" height="108.587" fill="#323353"/>
<rect y="19.7422" width="640" height="73.7765" fill="#6B3E75"/>
<rect y="-0.000488281" width="640" height="108.587" fill="#323353"/>
<rect y="19.7422" width="640" height="73.7765" fill="#6B3E75"/>
<path d="M524.698 108.586H480.837L552.743 -0.000488281H596.603L524.698 108.586Z" fill="#6B3E75"/>
<path d="M437.512 108.586H393.651L465.557 -0.000488281H509.417L437.512 108.586Z" fill="#6B3E75"/>
<path d="M350.258 108.586H306.396L378.302 -0.000488281H422.163L350.258 108.586Z" fill="#6B3E75"/>
<path d="M262.912 108.586H219.052L290.957 -0.000488281H334.817L262.912 108.586Z" fill="#6B3E75"/>
<path d="M174.97 108.586H131.11L203.015 -0.000488281H246.875L174.97 108.586Z" fill="#6B3E75"/>
<path d="M87.7163 108.586H43.855L115.76 -0.000488281H159.622L87.7163 108.586Z" fill="#6B3E75"/>
<path d="M639.999 108.587H610.086L639.999 63.4141V108.587Z" fill="#6B3E75"/>
<path d="M640 66.3682L612.044 108.587H568.184L640 0.132812V66.3682Z" fill="#6B3E75"/>
<path d="M0 56.7485V-0.000488281H37.5791L0 56.7485Z" fill="#6B3E75"/>
<path d="M0.371094 108.586H0V42.9116L28.416 -0.000488281H72.2764L0.371094 108.586Z" fill="#6B3E75"/>
<path d="M158.227 68.5427C156.762 68.5427 155.461 68.4005 154.323 68.1161C153.2 67.8316 152.275 67.4476 151.55 66.9641C150.839 66.4805 150.249 65.8832 149.779 65.1721C149.324 64.4467 149.004 63.6858 148.819 62.8894C148.634 62.0929 148.542 61.2112 148.542 60.2441V43.0921H156.137V59.2841C156.137 61.0903 156.321 62.3347 156.691 63.0174C157.075 63.6858 157.63 64.0201 158.355 64.0201C158.753 64.0201 159.102 63.9561 159.401 63.8281C159.699 63.6858 159.977 63.4512 160.233 63.1241C160.489 62.7827 160.681 62.2992 160.809 61.6734C160.951 61.0334 161.022 60.2583 161.022 59.3481V43.0921H167.763V60.3721C167.763 61.3249 167.678 62.1854 167.507 62.9534C167.351 63.7214 167.052 64.4681 166.611 65.1934C166.185 65.9045 165.616 66.5018 164.905 66.9854C164.208 67.4547 163.29 67.8316 162.153 68.1161C161.029 68.4005 159.721 68.5427 158.227 68.5427ZM177.41 68.0947H170.626V45.0974L169.58 43.0921H177.431L181.356 51.1987L185.111 59.2841L184.066 49.7907V43.0921H190.871V68.0947H184.364L179.287 58.2174L176.151 52.0307L177.41 60.2227V68.0947ZM202.177 64.5961C203.258 64.5961 204.083 63.9276 204.652 62.5907C205.235 61.2538 205.527 59.0494 205.527 55.9774V53.8227C205.527 51.5756 205.257 49.8405 204.716 48.6174C204.176 47.3943 203.408 46.7827 202.412 46.7827H200.812V64.5961H202.177ZM202.839 68.2441C202.327 68.2441 201.53 68.2156 200.449 68.1587C199.383 68.1161 198.281 68.0947 197.143 68.0947H193.751V43.0921H197.143C198.096 43.0778 199.134 43.0423 200.257 42.9854C201.381 42.9285 202.263 42.9001 202.903 42.9001C206.529 42.9001 209.125 43.9169 210.689 45.9507C212.268 47.9845 213.057 50.9498 213.057 54.8467C213.057 56.1694 212.965 57.4281 212.78 58.6227C212.609 59.8174 212.282 61.0192 211.799 62.2281C211.315 63.4227 210.704 64.4538 209.964 65.3214C209.225 66.1889 208.243 66.8929 207.02 67.4334C205.797 67.9738 204.403 68.2441 202.839 68.2441ZM230.189 68.0947H215.063V43.0921H229.869L229.442 48.1267L222.125 47.9134V52.7347H227.885V57.7267L222.125 57.3001V62.9747L230.189 62.7614V68.0947ZM239.144 59.7747V68.0947H232.062V43.0921H234.878C235.56 43.0921 236.577 43.0636 237.928 43.0067C239.28 42.9356 240.396 42.9001 241.278 42.9001C244.35 42.9001 246.64 43.5756 248.147 44.9267C249.669 46.2778 250.43 48.3472 250.43 51.1347C250.43 52.7845 250.067 54.2494 249.342 55.5294C248.631 56.8094 247.685 57.8263 246.504 58.5801C247.144 58.7365 247.692 59.0992 248.147 59.6681C248.616 60.2369 248.979 60.9125 249.235 61.6947C249.491 62.4627 249.712 63.2449 249.896 64.0414C250.096 64.8236 250.316 65.5987 250.558 66.3667C250.814 67.1347 251.091 67.7107 251.39 68.0947H243.518C243.361 67.8956 243.24 67.3409 243.155 66.4307C243.07 65.5063 242.949 64.4041 242.792 63.1241C242.65 61.8298 242.444 60.7489 242.174 59.8814C242.145 59.8814 242.11 59.8814 242.067 59.8814C241.797 59.8814 241.505 59.8814 241.192 59.8814C240.894 59.8672 240.631 59.8529 240.403 59.8387C240.176 59.8245 239.934 59.8103 239.678 59.7961C239.436 59.7818 239.258 59.7747 239.144 59.7747ZM239.144 55.8067H239.827C240.183 55.8067 240.481 55.7925 240.723 55.7641C240.965 55.7356 241.228 55.6858 241.512 55.6147C241.811 55.5294 242.053 55.4014 242.238 55.2307C242.437 55.0601 242.622 54.8396 242.792 54.5694C242.963 54.2992 243.091 53.9507 243.176 53.5241C243.262 53.0974 243.304 52.5996 243.304 52.0307V50.3454C243.304 49.1081 242.977 48.2476 242.323 47.7641C241.683 47.2663 240.759 47.0174 239.55 47.0174H239.144V55.8067ZM277.1 66.3241L276.908 66.5587C276.766 66.7009 276.524 66.8858 276.183 67.1134C275.855 67.3267 275.457 67.5472 274.988 67.7747C274.533 67.9881 273.921 68.1658 273.153 68.3081C272.385 68.4645 271.56 68.5427 270.679 68.5427C268.815 68.5427 267.223 68.2369 265.9 67.6254C264.577 66.9996 263.539 66.0965 262.785 64.9161C262.046 63.7214 261.512 62.3774 261.185 60.8841C260.858 59.3765 260.695 57.6343 260.695 55.6574C260.695 53.5525 260.858 51.7392 261.185 50.2174C261.512 48.6814 262.053 47.3374 262.807 46.1854C263.575 45.0192 264.627 44.1445 265.964 43.5614C267.301 42.9783 268.929 42.6867 270.849 42.6867C271.731 42.6867 272.556 42.7649 273.324 42.9214C274.106 43.0778 274.718 43.2556 275.159 43.4547C275.614 43.6538 276.019 43.8814 276.375 44.1374C276.744 44.3934 276.972 44.5712 277.057 44.6707C277.157 44.7703 277.228 44.8485 277.271 44.9054L276.951 49.8121H273.708L272.599 47.2734C272.343 47.2023 272.129 47.1667 271.959 47.1667C271.006 47.1667 270.273 47.3872 269.761 47.8281C269.249 48.2547 268.858 49.1009 268.588 50.3667C268.318 51.6183 268.183 53.4245 268.183 55.7854C268.183 57.1934 268.268 58.4236 268.439 59.4761C268.623 60.5285 268.844 61.3392 269.1 61.9081C269.356 62.4627 269.662 62.9107 270.017 63.2521C270.373 63.5934 270.693 63.8138 270.977 63.9134C271.262 63.9987 271.567 64.0414 271.895 64.0414C272.62 64.0414 273.381 63.9561 274.177 63.7854C274.974 63.6005 275.628 63.3232 276.14 62.9534L277.1 66.3241ZM286.233 58.4307C286.233 60.7916 286.411 62.4343 286.766 63.3587C287.136 64.2832 287.776 64.7454 288.686 64.7454C289.355 64.7454 289.859 64.5818 290.201 64.2547C290.542 63.9134 290.798 63.2236 290.969 62.1854C291.154 61.1329 291.246 59.5614 291.246 57.4707V52.3294C291.246 50.2956 291.047 48.7809 290.649 47.7854C290.251 46.7898 289.596 46.2921 288.686 46.2921C287.776 46.2921 287.136 46.7827 286.766 47.7641C286.411 48.7312 286.233 50.5018 286.233 53.0761V58.4307ZM288.238 68.5427C287.058 68.5427 285.991 68.4361 285.038 68.2227C284.099 68.0094 283.289 67.7107 282.606 67.3267C281.923 66.9427 281.326 66.4521 280.814 65.8547C280.316 65.2574 279.911 64.6174 279.598 63.9347C279.299 63.2521 279.058 62.4556 278.873 61.5454C278.688 60.6209 278.56 59.7036 278.489 58.7934C278.418 57.8689 278.382 56.8307 278.382 55.6787C278.382 53.9721 278.467 52.4858 278.638 51.2201C278.823 49.9543 279.157 48.7667 279.641 47.6574C280.124 46.5338 280.764 45.6236 281.561 44.9267C282.371 44.2298 283.41 43.6823 284.675 43.2841C285.955 42.8858 287.463 42.6867 289.198 42.6867C290.393 42.6867 291.467 42.8005 292.419 43.0281C293.372 43.2414 294.19 43.5401 294.873 43.9241C295.555 44.3081 296.146 44.8058 296.643 45.4174C297.155 46.0289 297.561 46.6832 297.859 47.3801C298.172 48.0627 298.421 48.8663 298.606 49.7907C298.791 50.7152 298.919 51.6325 298.99 52.5427C299.061 53.4529 299.097 54.4841 299.097 55.6361C299.097 57.3427 299.004 58.8289 298.819 60.0947C298.635 61.3605 298.3 62.5481 297.817 63.6574C297.333 64.7525 296.686 65.6485 295.875 66.3454C295.065 67.0281 294.019 67.5685 292.739 67.9667C291.474 68.3507 289.973 68.5427 288.238 68.5427ZM308.097 68.0947H301.313V45.0974L300.268 43.0921H308.119L312.044 51.1987L315.799 59.2841L314.753 49.7907V43.0921H321.559V68.0947H315.052L309.975 58.2174L306.839 52.0307L308.097 60.2227V68.0947ZM331.884 68.5427C330.788 68.5427 329.764 68.4432 328.812 68.2441C327.873 68.0592 327.084 67.8103 326.444 67.4974C325.804 67.1845 325.277 66.8858 324.865 66.6014C324.467 66.3169 324.132 66.0325 323.862 65.7481L324.396 60.5641C324.979 61.3463 325.761 62.0289 326.742 62.6121C327.724 63.1809 328.783 63.4654 329.921 63.4654C331.059 63.4654 331.876 63.3445 332.374 63.1027C332.886 62.8609 333.142 62.4201 333.142 61.7801C333.142 61.0974 332.851 60.5143 332.268 60.0307C331.699 59.5472 330.71 58.9641 329.302 58.2814C328.79 58.0254 328.356 57.7978 328.001 57.5987C327.645 57.3854 327.169 57.0441 326.572 56.5747C325.988 56.0912 325.512 55.5934 325.142 55.0814C324.772 54.5552 324.445 53.8867 324.161 53.0761C323.876 52.2512 323.734 51.3694 323.734 50.4307C323.734 45.3534 326.6 42.8147 332.332 42.8147C333.242 42.8147 334.095 42.9143 334.892 43.1134C335.702 43.2983 336.335 43.5045 336.79 43.7321C337.245 43.9596 337.658 44.2298 338.028 44.5427C338.412 44.8414 338.653 45.0547 338.753 45.1827C338.852 45.2965 338.924 45.3889 338.966 45.4601L337.9 49.5774C337.345 48.9232 336.648 48.4396 335.809 48.1267C334.984 47.7996 334.195 47.6361 333.441 47.6361C331.62 47.6361 330.71 48.2049 330.71 49.3427C330.71 49.6414 330.767 49.9116 330.881 50.1534C330.995 50.3952 331.18 50.6156 331.436 50.8147C331.692 51.0138 331.926 51.1845 332.14 51.3267C332.367 51.4689 332.673 51.6467 333.057 51.8601C333.455 52.0592 333.754 52.2227 333.953 52.3507C336.029 53.2325 337.551 54.2778 338.518 55.4867C339.5 56.6956 339.99 58.1676 339.99 59.9027C339.99 62.7187 339.293 64.8663 337.9 66.3454C336.52 67.8103 334.515 68.5427 331.884 68.5427ZM346.219 68.0947V48.7454H341.227V43.0921H358.421V48.7454H353.429V68.0947H346.219ZM367.332 59.7747V68.0947H360.249V43.0921H363.065C363.748 43.0921 364.765 43.0636 366.116 43.0067C367.467 42.9356 368.583 42.9001 369.465 42.9001C372.537 42.9001 374.827 43.5756 376.335 44.9267C377.856 46.2778 378.617 48.3472 378.617 51.1347C378.617 52.7845 378.255 54.2494 377.529 55.5294C376.818 56.8094 375.872 57.8263 374.692 58.5801C375.332 58.7365 375.879 59.0992 376.335 59.6681C376.804 60.2369 377.167 60.9125 377.423 61.6947C377.679 62.4627 377.899 63.2449 378.084 64.0414C378.283 64.8236 378.503 65.5987 378.745 66.3667C379.001 67.1347 379.279 67.7107 379.577 68.0947H371.705C371.549 67.8956 371.428 67.3409 371.343 66.4307C371.257 65.5063 371.136 64.4041 370.98 63.1241C370.838 61.8298 370.631 60.7489 370.361 59.8814C370.333 59.8814 370.297 59.8814 370.255 59.8814C369.984 59.8814 369.693 59.8814 369.38 59.8814C369.081 59.8672 368.818 59.8529 368.591 59.8387C368.363 59.8245 368.121 59.8103 367.865 59.7961C367.623 59.7818 367.446 59.7747 367.332 59.7747ZM367.332 55.8067H368.015C368.37 55.8067 368.669 55.7925 368.911 55.7641C369.152 55.7356 369.415 55.6858 369.7 55.6147C369.999 55.5294 370.24 55.4014 370.425 55.2307C370.624 55.0601 370.809 54.8396 370.98 54.5694C371.151 54.2992 371.279 53.9507 371.364 53.5241C371.449 53.0974 371.492 52.5996 371.492 52.0307V50.3454C371.492 49.1081 371.165 48.2476 370.511 47.7641C369.871 47.2663 368.946 47.0174 367.737 47.0174H367.332V55.8067ZM390.602 68.5427C389.137 68.5427 387.836 68.4005 386.698 68.1161C385.575 67.8316 384.65 67.4476 383.925 66.9641C383.214 66.4805 382.624 65.8832 382.154 65.1721C381.699 64.4467 381.379 63.6858 381.194 62.8894C381.009 62.0929 380.917 61.2112 380.917 60.2441V43.0921H388.512V59.2841C388.512 61.0903 388.696 62.3347 389.066 63.0174C389.45 63.6858 390.005 64.0201 390.73 64.0201C391.128 64.0201 391.477 63.9561 391.776 63.8281C392.074 63.6858 392.352 63.4512 392.608 63.1241C392.864 62.7827 393.056 62.2992 393.184 61.6734C393.326 61.0334 393.397 60.2583 393.397 59.3481V43.0921H400.138V60.3721C400.138 61.3249 400.053 62.1854 399.882 62.9534C399.726 63.7214 399.427 64.4681 398.986 65.1934C398.56 65.9045 397.991 66.5018 397.28 66.9854C396.583 67.4547 395.665 67.8316 394.528 68.1161C393.404 68.4005 392.096 68.5427 390.602 68.5427ZM418.787 66.3241L418.595 66.5587C418.453 66.7009 418.211 66.8858 417.87 67.1134C417.543 67.3267 417.145 67.5472 416.675 67.7747C416.22 67.9881 415.609 68.1658 414.841 68.3081C414.073 68.4645 413.248 68.5427 412.366 68.5427C410.503 68.5427 408.91 68.2369 407.587 67.6254C406.265 66.9996 405.227 66.0965 404.473 64.9161C403.733 63.7214 403.2 62.3774 402.873 60.8841C402.546 59.3765 402.382 57.6343 402.382 55.6574C402.382 53.5525 402.546 51.7392 402.873 50.2174C403.2 48.6814 403.74 47.3374 404.494 46.1854C405.262 45.0192 406.315 44.1445 407.651 43.5614C408.988 42.9783 410.617 42.6867 412.537 42.6867C413.419 42.6867 414.243 42.7649 415.011 42.9214C415.794 43.0778 416.405 43.2556 416.846 43.4547C417.301 43.6538 417.707 43.8814 418.062 44.1374C418.432 44.3934 418.659 44.5712 418.745 44.6707C418.844 44.7703 418.915 44.8485 418.958 44.9054L418.638 49.8121H415.395L414.286 47.2734C414.03 47.2023 413.817 47.1667 413.646 47.1667C412.693 47.1667 411.961 47.3872 411.449 47.8281C410.937 48.2547 410.546 49.1009 410.275 50.3667C410.005 51.6183 409.87 53.4245 409.87 55.7854C409.87 57.1934 409.955 58.4236 410.126 59.4761C410.311 60.5285 410.531 61.3392 410.787 61.9081C411.043 62.4627 411.349 62.9107 411.705 63.2521C412.06 63.5934 412.38 63.8138 412.665 63.9134C412.949 63.9987 413.255 64.0414 413.582 64.0414C414.307 64.0414 415.068 63.9561 415.865 63.7854C416.661 63.6005 417.315 63.3232 417.827 62.9534L418.787 66.3241ZM424.656 68.0947V48.7454H419.664V43.0921H436.859V48.7454H431.867V68.0947H424.656ZM438.815 68.0947V43.0921H446.089V68.0947H438.815ZM456.233 58.4307C456.233 60.7916 456.411 62.4343 456.766 63.3587C457.136 64.2832 457.776 64.7454 458.686 64.7454C459.355 64.7454 459.859 64.5818 460.201 64.2547C460.542 63.9134 460.798 63.2236 460.969 62.1854C461.154 61.1329 461.246 59.5614 461.246 57.4707V52.3294C461.246 50.2956 461.047 48.7809 460.649 47.7854C460.251 46.7898 459.596 46.2921 458.686 46.2921C457.776 46.2921 457.136 46.7827 456.766 47.7641C456.411 48.7312 456.233 50.5018 456.233 53.0761V58.4307ZM458.238 68.5427C457.058 68.5427 455.991 68.4361 455.038 68.2227C454.099 68.0094 453.289 67.7107 452.606 67.3267C451.923 66.9427 451.326 66.4521 450.814 65.8547C450.316 65.2574 449.911 64.6174 449.598 63.9347C449.299 63.2521 449.058 62.4556 448.873 61.5454C448.688 60.6209 448.56 59.7036 448.489 58.7934C448.418 57.8689 448.382 56.8307 448.382 55.6787C448.382 53.9721 448.467 52.4858 448.638 51.2201C448.823 49.9543 449.157 48.7667 449.641 47.6574C450.124 46.5338 450.764 45.6236 451.561 44.9267C452.371 44.2298 453.41 43.6823 454.675 43.2841C455.955 42.8858 457.463 42.6867 459.198 42.6867C460.393 42.6867 461.467 42.8005 462.419 43.0281C463.372 43.2414 464.19 43.5401 464.873 43.9241C465.555 44.3081 466.146 44.8058 466.643 45.4174C467.155 46.0289 467.561 46.6832 467.859 47.3801C468.172 48.0627 468.421 48.8663 468.606 49.7907C468.791 50.7152 468.919 51.6325 468.99 52.5427C469.061 53.4529 469.097 54.4841 469.097 55.6361C469.097 57.3427 469.004 58.8289 468.819 60.0947C468.635 61.3605 468.3 62.5481 467.817 63.6574C467.333 64.7525 466.686 65.6485 465.875 66.3454C465.065 67.0281 464.019 67.5685 462.739 67.9667C461.474 68.3507 459.973 68.5427 458.238 68.5427ZM478.097 68.0947H471.313V45.0974L470.268 43.0921H478.119L482.044 51.1987L485.799 59.2841L484.753 49.7907V43.0921H491.559V68.0947H485.052L479.975 58.2174L476.839 52.0307L478.097 60.2227V68.0947Z" fill="#45293F"/>
<rect x="640" y="-0.000488281" width="640" height="108.587" fill="#323353"/>
<rect x="640" y="19.7422" width="640" height="73.7765" fill="#6B3E75"/>
<rect x="640" y="-0.000488281" width="640" height="108.587" fill="#323353"/>
<rect x="640" y="19.7422" width="640" height="73.7765" fill="#6B3E75"/>
<path d="M1164.7 108.586H1120.84L1192.74 -0.000488281H1236.6L1164.7 108.586Z" fill="#6B3E75"/>
<path d="M1077.51 108.586H1033.65L1105.56 -0.000488281H1149.42L1077.51 108.586Z" fill="#6B3E75"/>
<path d="M990.258 108.586H946.396L1018.3 -0.000488281H1062.16L990.258 108.586Z" fill="#6B3E75"/>
<path d="M902.911 108.586H859.05L930.955 -0.000488281H974.816L902.911 108.586Z" fill="#6B3E75"/>
<path d="M814.97 108.586H771.109L843.015 -0.000488281H886.875L814.97 108.586Z" fill="#6B3E75"/>
<path d="M727.717 108.586H683.855L755.761 -0.000488281H799.622L727.717 108.586Z" fill="#6B3E75"/>
<path d="M1280 108.587H1250.09L1280 63.4141V108.587Z" fill="#6B3E75"/>
<path d="M1280 66.3682L1252.04 108.587H1208.18L1280 0.132812V66.3682Z" fill="#6B3E75"/>
<path d="M640 56.7485V-0.000488281H677.579L640 56.7485Z" fill="#6B3E75"/>
<path d="M640.37 108.586H640V42.9097L668.415 -0.000488281H712.275L640.37 108.586Z" fill="#6B3E75"/>
<path d="M798.227 68.5427C796.762 68.5427 795.461 68.4005 794.323 68.1161C793.2 67.8316 792.275 67.4476 791.55 66.9641C790.839 66.4805 790.249 65.8832 789.779 65.1721C789.324 64.4467 789.004 63.6858 788.819 62.8894C788.634 62.0929 788.542 61.2112 788.542 60.2441V43.0921H796.137V59.2841C796.137 61.0903 796.321 62.3347 796.691 63.0174C797.075 63.6858 797.63 64.0201 798.355 64.0201C798.753 64.0201 799.102 63.9561 799.401 63.8281C799.699 63.6858 799.977 63.4512 800.233 63.1241C800.489 62.7827 800.681 62.2992 800.809 61.6734C800.951 61.0334 801.022 60.2583 801.022 59.3481V43.0921H807.763V60.3721C807.763 61.3249 807.678 62.1854 807.507 62.9534C807.351 63.7214 807.052 64.4681 806.611 65.1934C806.185 65.9045 805.616 66.5018 804.905 66.9854C804.208 67.4547 803.29 67.8316 802.153 68.1161C801.029 68.4005 799.721 68.5427 798.227 68.5427ZM817.41 68.0947H810.626V45.0974L809.58 43.0921H817.431L821.356 51.1987L825.111 59.2841L824.066 49.7907V43.0921H830.871V68.0947H824.364L819.287 58.2174L816.151 52.0307L817.41 60.2227V68.0947ZM842.177 64.5961C843.258 64.5961 844.083 63.9276 844.652 62.5907C845.235 61.2538 845.527 59.0494 845.527 55.9774V53.8227C845.527 51.5756 845.257 49.8405 844.716 48.6174C844.176 47.3943 843.408 46.7827 842.412 46.7827H840.812V64.5961H842.177ZM842.839 68.2441C842.327 68.2441 841.53 68.2156 840.449 68.1587C839.383 68.1161 838.281 68.0947 837.143 68.0947H833.751V43.0921H837.143C838.096 43.0778 839.134 43.0423 840.257 42.9854C841.381 42.9285 842.263 42.9001 842.903 42.9001C846.529 42.9001 849.125 43.9169 850.689 45.9507C852.268 47.9845 853.057 50.9498 853.057 54.8467C853.057 56.1694 852.965 57.4281 852.78 58.6227C852.609 59.8174 852.282 61.0192 851.799 62.2281C851.315 63.4227 850.704 64.4538 849.964 65.3214C849.225 66.1889 848.243 66.8929 847.02 67.4334C845.797 67.9738 844.403 68.2441 842.839 68.2441ZM870.189 68.0947H855.063V43.0921H869.869L869.442 48.1267L862.125 47.9134V52.7347H867.885V57.7267L862.125 57.3001V62.9747L870.189 62.7614V68.0947ZM879.144 59.7747V68.0947H872.062V43.0921H874.878C875.56 43.0921 876.577 43.0636 877.928 43.0067C879.28 42.9356 880.396 42.9001 881.278 42.9001C884.35 42.9001 886.64 43.5756 888.147 44.9267C889.669 46.2778 890.43 48.3472 890.43 51.1347C890.43 52.7845 890.067 54.2494 889.342 55.5294C888.631 56.8094 887.685 57.8263 886.504 58.5801C887.144 58.7365 887.692 59.0992 888.147 59.6681C888.616 60.2369 888.979 60.9125 889.235 61.6947C889.491 62.4627 889.712 63.2449 889.896 64.0414C890.096 64.8236 890.316 65.5987 890.558 66.3667C890.814 67.1347 891.091 67.7107 891.39 68.0947H883.518C883.361 67.8956 883.24 67.3409 883.155 66.4307C883.07 65.5063 882.949 64.4041 882.792 63.1241C882.65 61.8298 882.444 60.7489 882.174 59.8814C882.145 59.8814 882.11 59.8814 882.067 59.8814C881.797 59.8814 881.505 59.8814 881.192 59.8814C880.894 59.8672 880.631 59.8529 880.403 59.8387C880.176 59.8245 879.934 59.8103 879.678 59.7961C879.436 59.7818 879.258 59.7747 879.144 59.7747ZM879.144 55.8067H879.827C880.183 55.8067 880.481 55.7925 880.723 55.7641C880.965 55.7356 881.228 55.6858 881.512 55.6147C881.811 55.5294 882.053 55.4014 882.238 55.2307C882.437 55.0601 882.622 54.8396 882.792 54.5694C882.963 54.2992 883.091 53.9507 883.176 53.5241C883.262 53.0974 883.304 52.5996 883.304 52.0307V50.3454C883.304 49.1081 882.977 48.2476 882.323 47.7641C881.683 47.2663 880.759 47.0174 879.55 47.0174H879.144V55.8067ZM917.1 66.3241L916.908 66.5587C916.766 66.7009 916.524 66.8858 916.183 67.1134C915.855 67.3267 915.457 67.5472 914.988 67.7747C914.533 67.9881 913.921 68.1658 913.153 68.3081C912.385 68.4645 911.56 68.5427 910.679 68.5427C908.815 68.5427 907.223 68.2369 905.9 67.6254C904.577 66.9996 903.539 66.0965 902.785 64.9161C902.046 63.7214 901.512 62.3774 901.185 60.8841C900.858 59.3765 900.695 57.6343 900.695 55.6574C900.695 53.5525 900.858 51.7392 901.185 50.2174C901.512 48.6814 902.053 47.3374 902.807 46.1854C903.575 45.0192 904.627 44.1445 905.964 43.5614C907.301 42.9783 908.929 42.6867 910.849 42.6867C911.731 42.6867 912.556 42.7649 913.324 42.9214C914.106 43.0778 914.718 43.2556 915.159 43.4547C915.614 43.6538 916.019 43.8814 916.375 44.1374C916.744 44.3934 916.972 44.5712 917.057 44.6707C917.157 44.7703 917.228 44.8485 917.271 44.9054L916.951 49.8121H913.708L912.599 47.2734C912.343 47.2023 912.129 47.1667 911.959 47.1667C911.006 47.1667 910.273 47.3872 909.761 47.8281C909.249 48.2547 908.858 49.1009 908.588 50.3667C908.318 51.6183 908.183 53.4245 908.183 55.7854C908.183 57.1934 908.268 58.4236 908.439 59.4761C908.623 60.5285 908.844 61.3392 909.1 61.9081C909.356 62.4627 909.662 62.9107 910.017 63.2521C910.373 63.5934 910.693 63.8138 910.977 63.9134C911.262 63.9987 911.567 64.0414 911.895 64.0414C912.62 64.0414 913.381 63.9561 914.177 63.7854C914.974 63.6005 915.628 63.3232 916.14 62.9534L917.1 66.3241ZM926.233 58.4307C926.233 60.7916 926.411 62.4343 926.766 63.3587C927.136 64.2832 927.776 64.7454 928.686 64.7454C929.355 64.7454 929.859 64.5818 930.201 64.2547C930.542 63.9134 930.798 63.2236 930.969 62.1854C931.154 61.1329 931.246 59.5614 931.246 57.4707V52.3294C931.246 50.2956 931.047 48.7809 930.649 47.7854C930.251 46.7898 929.596 46.2921 928.686 46.2921C927.776 46.2921 927.136 46.7827 926.766 47.7641C926.411 48.7312 926.233 50.5018 926.233 53.0761V58.4307ZM928.238 68.5427C927.058 68.5427 925.991 68.4361 925.038 68.2227C924.099 68.0094 923.289 67.7107 922.606 67.3267C921.923 66.9427 921.326 66.4521 920.814 65.8547C920.316 65.2574 919.911 64.6174 919.598 63.9347C919.299 63.2521 919.058 62.4556 918.873 61.5454C918.688 60.6209 918.56 59.7036 918.489 58.7934C918.418 57.8689 918.382 56.8307 918.382 55.6787C918.382 53.9721 918.467 52.4858 918.638 51.2201C918.823 49.9543 919.157 48.7667 919.641 47.6574C920.124 46.5338 920.764 45.6236 921.561 44.9267C922.371 44.2298 923.41 43.6823 924.675 43.2841C925.955 42.8858 927.463 42.6867 929.198 42.6867C930.393 42.6867 931.467 42.8005 932.419 43.0281C933.372 43.2414 934.19 43.5401 934.873 43.9241C935.555 44.3081 936.146 44.8058 936.643 45.4174C937.155 46.0289 937.561 46.6832 937.859 47.3801C938.172 48.0627 938.421 48.8663 938.606 49.7907C938.791 50.7152 938.919 51.6325 938.99 52.5427C939.061 53.4529 939.097 54.4841 939.097 55.6361C939.097 57.3427 939.004 58.8289 938.819 60.0947C938.635 61.3605 938.3 62.5481 937.817 63.6574C937.333 64.7525 936.686 65.6485 935.875 66.3454C935.065 67.0281 934.019 67.5685 932.739 67.9667C931.474 68.3507 929.973 68.5427 928.238 68.5427ZM948.097 68.0947H941.313V45.0974L940.268 43.0921H948.119L952.044 51.1987L955.799 59.2841L954.753 49.7907V43.0921H961.559V68.0947H955.052L949.975 58.2174L946.839 52.0307L948.097 60.2227V68.0947ZM971.884 68.5427C970.788 68.5427 969.764 68.4432 968.812 68.2441C967.873 68.0592 967.084 67.8103 966.444 67.4974C965.804 67.1845 965.277 66.8858 964.865 66.6014C964.467 66.3169 964.132 66.0325 963.862 65.7481L964.396 60.5641C964.979 61.3463 965.761 62.0289 966.742 62.6121C967.724 63.1809 968.783 63.4654 969.921 63.4654C971.059 63.4654 971.876 63.3445 972.374 63.1027C972.886 62.8609 973.142 62.4201 973.142 61.7801C973.142 61.0974 972.851 60.5143 972.268 60.0307C971.699 59.5472 970.71 58.9641 969.302 58.2814C968.79 58.0254 968.356 57.7978 968.001 57.5987C967.645 57.3854 967.169 57.0441 966.572 56.5747C965.988 56.0912 965.512 55.5934 965.142 55.0814C964.772 54.5552 964.445 53.8867 964.161 53.0761C963.876 52.2512 963.734 51.3694 963.734 50.4307C963.734 45.3534 966.6 42.8147 972.332 42.8147C973.242 42.8147 974.095 42.9143 974.892 43.1134C975.702 43.2983 976.335 43.5045 976.79 43.7321C977.245 43.9596 977.658 44.2298 978.028 44.5427C978.412 44.8414 978.653 45.0547 978.753 45.1827C978.852 45.2965 978.924 45.3889 978.966 45.4601L977.9 49.5774C977.345 48.9232 976.648 48.4396 975.809 48.1267C974.984 47.7996 974.195 47.6361 973.441 47.6361C971.62 47.6361 970.71 48.2049 970.71 49.3427C970.71 49.6414 970.767 49.9116 970.881 50.1534C970.995 50.3952 971.18 50.6156 971.436 50.8147C971.692 51.0138 971.926 51.1845 972.14 51.3267C972.367 51.4689 972.673 51.6467 973.057 51.8601C973.455 52.0592 973.754 52.2227 973.953 52.3507C976.029 53.2325 977.551 54.2778 978.518 55.4867C979.5 56.6956 979.99 58.1676 979.99 59.9027C979.99 62.7187 979.293 64.8663 977.9 66.3454C976.52 67.8103 974.515 68.5427 971.884 68.5427ZM986.219 68.0947V48.7454H981.227V43.0921H998.421V48.7454H993.429V68.0947H986.219ZM1007.33 59.7747V68.0947H1000.25V43.0921H1003.07C1003.75 43.0921 1004.76 43.0636 1006.12 43.0067C1007.47 42.9356 1008.58 42.9001 1009.47 42.9001C1012.54 42.9001 1014.83 43.5756 1016.33 44.9267C1017.86 46.2778 1018.62 48.3472 1018.62 51.1347C1018.62 52.7845 1018.25 54.2494 1017.53 55.5294C1016.82 56.8094 1015.87 57.8263 1014.69 58.5801C1015.33 58.7365 1015.88 59.0992 1016.33 59.6681C1016.8 60.2369 1017.17 60.9125 1017.42 61.6947C1017.68 62.4627 1017.9 63.2449 1018.08 64.0414C1018.28 64.8236 1018.5 65.5987 1018.75 66.3667C1019 67.1347 1019.28 67.7107 1019.58 68.0947H1011.71C1011.55 67.8956 1011.43 67.3409 1011.34 66.4307C1011.26 65.5063 1011.14 64.4041 1010.98 63.1241C1010.84 61.8298 1010.63 60.7489 1010.36 59.8814C1010.33 59.8814 1010.3 59.8814 1010.25 59.8814C1009.98 59.8814 1009.69 59.8814 1009.38 59.8814C1009.08 59.8672 1008.82 59.8529 1008.59 59.8387C1008.36 59.8245 1008.12 59.8103 1007.87 59.7961C1007.62 59.7818 1007.45 59.7747 1007.33 59.7747ZM1007.33 55.8067H1008.01C1008.37 55.8067 1008.67 55.7925 1008.91 55.7641C1009.15 55.7356 1009.42 55.6858 1009.7 55.6147C1010 55.5294 1010.24 55.4014 1010.43 55.2307C1010.62 55.0601 1010.81 54.8396 1010.98 54.5694C1011.15 54.2992 1011.28 53.9507 1011.36 53.5241C1011.45 53.0974 1011.49 52.5996 1011.49 52.0307V50.3454C1011.49 49.1081 1011.16 48.2476 1010.51 47.7641C1009.87 47.2663 1008.95 47.0174 1007.74 47.0174H1007.33V55.8067ZM1030.6 68.5427C1029.14 68.5427 1027.84 68.4005 1026.7 68.1161C1025.57 67.8316 1024.65 67.4476 1023.92 66.9641C1023.21 66.4805 1022.62 65.8832 1022.15 65.1721C1021.7 64.4467 1021.38 63.6858 1021.19 62.8894C1021.01 62.0929 1020.92 61.2112 1020.92 60.2441V43.0921H1028.51V59.2841C1028.51 61.0903 1028.7 62.3347 1029.07 63.0174C1029.45 63.6858 1030 64.0201 1030.73 64.0201C1031.13 64.0201 1031.48 63.9561 1031.78 63.8281C1032.07 63.6858 1032.35 63.4512 1032.61 63.1241C1032.86 62.7827 1033.06 62.2992 1033.18 61.6734C1033.33 61.0334 1033.4 60.2583 1033.4 59.3481V43.0921H1040.14V60.3721C1040.14 61.3249 1040.05 62.1854 1039.88 62.9534C1039.73 63.7214 1039.43 64.4681 1038.99 65.1934C1038.56 65.9045 1037.99 66.5018 1037.28 66.9854C1036.58 67.4547 1035.67 67.8316 1034.53 68.1161C1033.4 68.4005 1032.1 68.5427 1030.6 68.5427ZM1058.79 66.3241L1058.6 66.5587C1058.45 66.7009 1058.21 66.8858 1057.87 67.1134C1057.54 67.3267 1057.14 67.5472 1056.68 67.7747C1056.22 67.9881 1055.61 68.1658 1054.84 68.3081C1054.07 68.4645 1053.25 68.5427 1052.37 68.5427C1050.5 68.5427 1048.91 68.2369 1047.59 67.6254C1046.26 66.9996 1045.23 66.0965 1044.47 64.9161C1043.73 63.7214 1043.2 62.3774 1042.87 60.8841C1042.55 59.3765 1042.38 57.6343 1042.38 55.6574C1042.38 53.5525 1042.55 51.7392 1042.87 50.2174C1043.2 48.6814 1043.74 47.3374 1044.49 46.1854C1045.26 45.0192 1046.31 44.1445 1047.65 43.5614C1048.99 42.9783 1050.62 42.6867 1052.54 42.6867C1053.42 42.6867 1054.24 42.7649 1055.01 42.9214C1055.79 43.0778 1056.41 43.2556 1056.85 43.4547C1057.3 43.6538 1057.71 43.8814 1058.06 44.1374C1058.43 44.3934 1058.66 44.5712 1058.74 44.6707C1058.84 44.7703 1058.92 44.8485 1058.96 44.9054L1058.64 49.8121H1055.4L1054.29 47.2734C1054.03 47.2023 1053.82 47.1667 1053.65 47.1667C1052.69 47.1667 1051.96 47.3872 1051.45 47.8281C1050.94 48.2547 1050.55 49.1009 1050.28 50.3667C1050.01 51.6183 1049.87 53.4245 1049.87 55.7854C1049.87 57.1934 1049.96 58.4236 1050.13 59.4761C1050.31 60.5285 1050.53 61.3392 1050.79 61.9081C1051.04 62.4627 1051.35 62.9107 1051.7 63.2521C1052.06 63.5934 1052.38 63.8138 1052.66 63.9134C1052.95 63.9987 1053.25 64.0414 1053.58 64.0414C1054.31 64.0414 1055.07 63.9561 1055.86 63.7854C1056.66 63.6005 1057.32 63.3232 1057.83 62.9534L1058.79 66.3241ZM1064.66 68.0947V48.7454H1059.66V43.0921H1076.86V48.7454H1071.87V68.0947H1064.66ZM1078.81 68.0947V43.0921H1086.09V68.0947H1078.81ZM1096.23 58.4307C1096.23 60.7916 1096.41 62.4343 1096.77 63.3587C1097.14 64.2832 1097.78 64.7454 1098.69 64.7454C1099.35 64.7454 1099.86 64.5818 1100.2 64.2547C1100.54 63.9134 1100.8 63.2236 1100.97 62.1854C1101.15 61.1329 1101.25 59.5614 1101.25 57.4707V52.3294C1101.25 50.2956 1101.05 48.7809 1100.65 47.7854C1100.25 46.7898 1099.6 46.2921 1098.69 46.2921C1097.78 46.2921 1097.14 46.7827 1096.77 47.7641C1096.41 48.7312 1096.23 50.5018 1096.23 53.0761V58.4307ZM1098.24 68.5427C1097.06 68.5427 1095.99 68.4361 1095.04 68.2227C1094.1 68.0094 1093.29 67.7107 1092.61 67.3267C1091.92 66.9427 1091.33 66.4521 1090.81 65.8547C1090.32 65.2574 1089.91 64.6174 1089.6 63.9347C1089.3 63.2521 1089.06 62.4556 1088.87 61.5454C1088.69 60.6209 1088.56 59.7036 1088.49 58.7934C1088.42 57.8689 1088.38 56.8307 1088.38 55.6787C1088.38 53.9721 1088.47 52.4858 1088.64 51.2201C1088.82 49.9543 1089.16 48.7667 1089.64 47.6574C1090.12 46.5338 1090.76 45.6236 1091.56 44.9267C1092.37 44.2298 1093.41 43.6823 1094.68 43.2841C1095.96 42.8858 1097.46 42.6867 1099.2 42.6867C1100.39 42.6867 1101.47 42.8005 1102.42 43.0281C1103.37 43.2414 1104.19 43.5401 1104.87 43.9241C1105.56 44.3081 1106.15 44.8058 1106.64 45.4174C1107.16 46.0289 1107.56 46.6832 1107.86 47.3801C1108.17 48.0627 1108.42 48.8663 1108.61 49.7907C1108.79 50.7152 1108.92 51.6325 1108.99 52.5427C1109.06 53.4529 1109.1 54.4841 1109.1 55.6361C1109.1 57.3427 1109 58.8289 1108.82 60.0947C1108.63 61.3605 1108.3 62.5481 1107.82 63.6574C1107.33 64.7525 1106.69 65.6485 1105.88 66.3454C1105.06 67.0281 1104.02 67.5685 1102.74 67.9667C1101.47 68.3507 1099.97 68.5427 1098.24 68.5427ZM1118.1 68.0947H1111.31V45.0974L1110.27 43.0921H1118.12L1122.04 51.1987L1125.8 59.2841L1124.75 49.7907V43.0921H1131.56V68.0947H1125.05L1119.97 58.2174L1116.84 52.0307L1118.1 60.2227V68.0947Z" fill="#45293F"/>
<rect x="1280" y="-0.000488281" width="640" height="108.587" fill="#323353"/>
<rect x="1280" y="19.7422" width="640" height="73.7765" fill="#6B3E75"/>
<rect x="1280" y="-0.000488281" width="640" height="108.587" fill="#323353"/>
<rect x="1280" y="19.7422" width="640" height="73.7765" fill="#6B3E75"/>
<path d="M1804.7 108.586H1760.84L1832.74 -0.000488281H1876.6L1804.7 108.586Z" fill="#6B3E75"/>
<path d="M1717.51 108.586H1673.65L1745.56 -0.000488281H1789.42L1717.51 108.586Z" fill="#6B3E75"/>
<path d="M1630.26 108.586H1586.4L1658.3 -0.000488281H1702.16L1630.26 108.586Z" fill="#6B3E75"/>
<path d="M1542.91 108.586H1499.05L1570.96 -0.000488281H1614.82L1542.91 108.586Z" fill="#6B3E75"/>
<path d="M1454.97 108.586H1411.11L1483.02 -0.000488281H1526.88L1454.97 108.586Z" fill="#6B3E75"/>
<path d="M1367.72 108.586H1323.86L1395.76 -0.000488281H1439.62L1367.72 108.586Z" fill="#6B3E75"/>
<path d="M1920 108.587H1890.09L1920 63.4141V108.587Z" fill="#6B3E75"/>
<path d="M1920 66.3682L1892.04 108.587H1848.18L1920 0.132812V66.3682Z" fill="#6B3E75"/>
<path d="M1280 56.7485V-0.000488281H1317.58L1280 56.7485Z" fill="#6B3E75"/>
<path d="M1280.37 108.586H1280V42.9116L1308.42 -0.000488281H1352.28L1280.37 108.586Z" fill="#6B3E75"/>
<path d="M1438.23 68.5427C1436.76 68.5427 1435.46 68.4005 1434.32 68.1161C1433.2 67.8316 1432.28 67.4476 1431.55 66.9641C1430.84 66.4805 1430.25 65.8832 1429.78 65.1721C1429.32 64.4467 1429 63.6858 1428.82 62.8894C1428.63 62.0929 1428.54 61.2112 1428.54 60.2441V43.0921H1436.14V59.2841C1436.14 61.0903 1436.32 62.3347 1436.69 63.0174C1437.08 63.6858 1437.63 64.0201 1438.36 64.0201C1438.75 64.0201 1439.1 63.9561 1439.4 63.8281C1439.7 63.6858 1439.98 63.4512 1440.23 63.1241C1440.49 62.7827 1440.68 62.2992 1440.81 61.6734C1440.95 61.0334 1441.02 60.2583 1441.02 59.3481V43.0921H1447.76V60.3721C1447.76 61.3249 1447.68 62.1854 1447.51 62.9534C1447.35 63.7214 1447.05 64.4681 1446.61 65.1934C1446.18 65.9045 1445.62 66.5018 1444.9 66.9854C1444.21 67.4547 1443.29 67.8316 1442.15 68.1161C1441.03 68.4005 1439.72 68.5427 1438.23 68.5427ZM1457.41 68.0947H1450.63V45.0974L1449.58 43.0921H1457.43L1461.36 51.1987L1465.11 59.2841L1464.07 49.7907V43.0921H1470.87V68.0947H1464.36L1459.29 58.2174L1456.15 52.0307L1457.41 60.2227V68.0947ZM1482.18 64.5961C1483.26 64.5961 1484.08 63.9276 1484.65 62.5907C1485.24 61.2538 1485.53 59.0494 1485.53 55.9774V53.8227C1485.53 51.5756 1485.26 49.8405 1484.72 48.6174C1484.18 47.3943 1483.41 46.7827 1482.41 46.7827H1480.81V64.5961H1482.18ZM1482.84 68.2441C1482.33 68.2441 1481.53 68.2156 1480.45 68.1587C1479.38 68.1161 1478.28 68.0947 1477.14 68.0947H1473.75V43.0921H1477.14C1478.1 43.0778 1479.13 43.0423 1480.26 42.9854C1481.38 42.9285 1482.26 42.9001 1482.9 42.9001C1486.53 42.9001 1489.12 43.9169 1490.69 45.9507C1492.27 47.9845 1493.06 50.9498 1493.06 54.8467C1493.06 56.1694 1492.96 57.4281 1492.78 58.6227C1492.61 59.8174 1492.28 61.0192 1491.8 62.2281C1491.32 63.4227 1490.7 64.4538 1489.96 65.3214C1489.22 66.1889 1488.24 66.8929 1487.02 67.4334C1485.8 67.9738 1484.4 68.2441 1482.84 68.2441ZM1510.19 68.0947H1495.06V43.0921H1509.87L1509.44 48.1267L1502.12 47.9134V52.7347H1507.88V57.7267L1502.12 57.3001V62.9747L1510.19 62.7614V68.0947ZM1519.14 59.7747V68.0947H1512.06V43.0921H1514.88C1515.56 43.0921 1516.58 43.0636 1517.93 43.0067C1519.28 42.9356 1520.4 42.9001 1521.28 42.9001C1524.35 42.9001 1526.64 43.5756 1528.15 44.9267C1529.67 46.2778 1530.43 48.3472 1530.43 51.1347C1530.43 52.7845 1530.07 54.2494 1529.34 55.5294C1528.63 56.8094 1527.68 57.8263 1526.5 58.5801C1527.14 58.7365 1527.69 59.0992 1528.15 59.6681C1528.62 60.2369 1528.98 60.9125 1529.24 61.6947C1529.49 62.4627 1529.71 63.2449 1529.9 64.0414C1530.1 64.8236 1530.32 65.5987 1530.56 66.3667C1530.81 67.1347 1531.09 67.7107 1531.39 68.0947H1523.52C1523.36 67.8956 1523.24 67.3409 1523.16 66.4307C1523.07 65.5063 1522.95 64.4041 1522.79 63.1241C1522.65 61.8298 1522.44 60.7489 1522.17 59.8814C1522.15 59.8814 1522.11 59.8814 1522.07 59.8814C1521.8 59.8814 1521.51 59.8814 1521.19 59.8814C1520.89 59.8672 1520.63 59.8529 1520.4 59.8387C1520.18 59.8245 1519.93 59.8103 1519.68 59.7961C1519.44 59.7818 1519.26 59.7747 1519.14 59.7747ZM1519.14 55.8067H1519.83C1520.18 55.8067 1520.48 55.7925 1520.72 55.7641C1520.96 55.7356 1521.23 55.6858 1521.51 55.6147C1521.81 55.5294 1522.05 55.4014 1522.24 55.2307C1522.44 55.0601 1522.62 54.8396 1522.79 54.5694C1522.96 54.2992 1523.09 53.9507 1523.18 53.5241C1523.26 53.0974 1523.3 52.5996 1523.3 52.0307V50.3454C1523.3 49.1081 1522.98 48.2476 1522.32 47.7641C1521.68 47.2663 1520.76 47.0174 1519.55 47.0174H1519.14V55.8067ZM1557.1 66.3241L1556.91 66.5587C1556.77 66.7009 1556.52 66.8858 1556.18 67.1134C1555.86 67.3267 1555.46 67.5472 1554.99 67.7747C1554.53 67.9881 1553.92 68.1658 1553.15 68.3081C1552.39 68.4645 1551.56 68.5427 1550.68 68.5427C1548.82 68.5427 1547.22 68.2369 1545.9 67.6254C1544.58 66.9996 1543.54 66.0965 1542.79 64.9161C1542.05 63.7214 1541.51 62.3774 1541.19 60.8841C1540.86 59.3765 1540.69 57.6343 1540.69 55.6574C1540.69 53.5525 1540.86 51.7392 1541.19 50.2174C1541.51 48.6814 1542.05 47.3374 1542.81 46.1854C1543.57 45.0192 1544.63 44.1445 1545.96 43.5614C1547.3 42.9783 1548.93 42.6867 1550.85 42.6867C1551.73 42.6867 1552.56 42.7649 1553.32 42.9214C1554.11 43.0778 1554.72 43.2556 1555.16 43.4547C1555.61 43.6538 1556.02 43.8814 1556.37 44.1374C1556.74 44.3934 1556.97 44.5712 1557.06 44.6707C1557.16 44.7703 1557.23 44.8485 1557.27 44.9054L1556.95 49.8121H1553.71L1552.6 47.2734C1552.34 47.2023 1552.13 47.1667 1551.96 47.1667C1551.01 47.1667 1550.27 47.3872 1549.76 47.8281C1549.25 48.2547 1548.86 49.1009 1548.59 50.3667C1548.32 51.6183 1548.18 53.4245 1548.18 55.7854C1548.18 57.1934 1548.27 58.4236 1548.44 59.4761C1548.62 60.5285 1548.84 61.3392 1549.1 61.9081C1549.36 62.4627 1549.66 62.9107 1550.02 63.2521C1550.37 63.5934 1550.69 63.8138 1550.98 63.9134C1551.26 63.9987 1551.57 64.0414 1551.89 64.0414C1552.62 64.0414 1553.38 63.9561 1554.18 63.7854C1554.97 63.6005 1555.63 63.3232 1556.14 62.9534L1557.1 66.3241ZM1566.23 58.4307C1566.23 60.7916 1566.41 62.4343 1566.77 63.3587C1567.14 64.2832 1567.78 64.7454 1568.69 64.7454C1569.35 64.7454 1569.86 64.5818 1570.2 64.2547C1570.54 63.9134 1570.8 63.2236 1570.97 62.1854C1571.15 61.1329 1571.25 59.5614 1571.25 57.4707V52.3294C1571.25 50.2956 1571.05 48.7809 1570.65 47.7854C1570.25 46.7898 1569.6 46.2921 1568.69 46.2921C1567.78 46.2921 1567.14 46.7827 1566.77 47.7641C1566.41 48.7312 1566.23 50.5018 1566.23 53.0761V58.4307ZM1568.24 68.5427C1567.06 68.5427 1565.99 68.4361 1565.04 68.2227C1564.1 68.0094 1563.29 67.7107 1562.61 67.3267C1561.92 66.9427 1561.33 66.4521 1560.81 65.8547C1560.32 65.2574 1559.91 64.6174 1559.6 63.9347C1559.3 63.2521 1559.06 62.4556 1558.87 61.5454C1558.69 60.6209 1558.56 59.7036 1558.49 58.7934C1558.42 57.8689 1558.38 56.8307 1558.38 55.6787C1558.38 53.9721 1558.47 52.4858 1558.64 51.2201C1558.82 49.9543 1559.16 48.7667 1559.64 47.6574C1560.12 46.5338 1560.76 45.6236 1561.56 44.9267C1562.37 44.2298 1563.41 43.6823 1564.68 43.2841C1565.96 42.8858 1567.46 42.6867 1569.2 42.6867C1570.39 42.6867 1571.47 42.8005 1572.42 43.0281C1573.37 43.2414 1574.19 43.5401 1574.87 43.9241C1575.56 44.3081 1576.15 44.8058 1576.64 45.4174C1577.16 46.0289 1577.56 46.6832 1577.86 47.3801C1578.17 48.0627 1578.42 48.8663 1578.61 49.7907C1578.79 50.7152 1578.92 51.6325 1578.99 52.5427C1579.06 53.4529 1579.1 54.4841 1579.1 55.6361C1579.1 57.3427 1579 58.8289 1578.82 60.0947C1578.63 61.3605 1578.3 62.5481 1577.82 63.6574C1577.33 64.7525 1576.69 65.6485 1575.88 66.3454C1575.06 67.0281 1574.02 67.5685 1572.74 67.9667C1571.47 68.3507 1569.97 68.5427 1568.24 68.5427ZM1588.1 68.0947H1581.31V45.0974L1580.27 43.0921H1588.12L1592.04 51.1987L1595.8 59.2841L1594.75 49.7907V43.0921H1601.56V68.0947H1595.05L1589.97 58.2174L1586.84 52.0307L1588.1 60.2227V68.0947ZM1611.88 68.5427C1610.79 68.5427 1609.76 68.4432 1608.81 68.2441C1607.87 68.0592 1607.08 67.8103 1606.44 67.4974C1605.8 67.1845 1605.28 66.8858 1604.86 66.6014C1604.47 66.3169 1604.13 66.0325 1603.86 65.7481L1604.4 60.5641C1604.98 61.3463 1605.76 62.0289 1606.74 62.6121C1607.72 63.1809 1608.78 63.4654 1609.92 63.4654C1611.06 63.4654 1611.88 63.3445 1612.37 63.1027C1612.89 62.8609 1613.14 62.4201 1613.14 61.7801C1613.14 61.0974 1612.85 60.5143 1612.27 60.0307C1611.7 59.5472 1610.71 58.9641 1609.3 58.2814C1608.79 58.0254 1608.36 57.7978 1608 57.5987C1607.65 57.3854 1607.17 57.0441 1606.57 56.5747C1605.99 56.0912 1605.51 55.5934 1605.14 55.0814C1604.77 54.5552 1604.45 53.8867 1604.16 53.0761C1603.88 52.2512 1603.73 51.3694 1603.73 50.4307C1603.73 45.3534 1606.6 42.8147 1612.33 42.8147C1613.24 42.8147 1614.1 42.9143 1614.89 43.1134C1615.7 43.2983 1616.34 43.5045 1616.79 43.7321C1617.25 43.9596 1617.66 44.2298 1618.03 44.5427C1618.41 44.8414 1618.65 45.0547 1618.75 45.1827C1618.85 45.2965 1618.92 45.3889 1618.97 45.4601L1617.9 49.5774C1617.34 48.9232 1616.65 48.4396 1615.81 48.1267C1614.98 47.7996 1614.19 47.6361 1613.44 47.6361C1611.62 47.6361 1610.71 48.2049 1610.71 49.3427C1610.71 49.6414 1610.77 49.9116 1610.88 50.1534C1610.99 50.3952 1611.18 50.6156 1611.44 50.8147C1611.69 51.0138 1611.93 51.1845 1612.14 51.3267C1612.37 51.4689 1612.67 51.6467 1613.06 51.8601C1613.46 52.0592 1613.75 52.2227 1613.95 52.3507C1616.03 53.2325 1617.55 54.2778 1618.52 55.4867C1619.5 56.6956 1619.99 58.1676 1619.99 59.9027C1619.99 62.7187 1619.29 64.8663 1617.9 66.3454C1616.52 67.8103 1614.51 68.5427 1611.88 68.5427ZM1626.22 68.0947V48.7454H1621.23V43.0921H1638.42V48.7454H1633.43V68.0947H1626.22ZM1647.33 59.7747V68.0947H1640.25V43.0921H1643.07C1643.75 43.0921 1644.76 43.0636 1646.12 43.0067C1647.47 42.9356 1648.58 42.9001 1649.47 42.9001C1652.54 42.9001 1654.83 43.5756 1656.33 44.9267C1657.86 46.2778 1658.62 48.3472 1658.62 51.1347C1658.62 52.7845 1658.25 54.2494 1657.53 55.5294C1656.82 56.8094 1655.87 57.8263 1654.69 58.5801C1655.33 58.7365 1655.88 59.0992 1656.33 59.6681C1656.8 60.2369 1657.17 60.9125 1657.42 61.6947C1657.68 62.4627 1657.9 63.2449 1658.08 64.0414C1658.28 64.8236 1658.5 65.5987 1658.75 66.3667C1659 67.1347 1659.28 67.7107 1659.58 68.0947H1651.71C1651.55 67.8956 1651.43 67.3409 1651.34 66.4307C1651.26 65.5063 1651.14 64.4041 1650.98 63.1241C1650.84 61.8298 1650.63 60.7489 1650.36 59.8814C1650.33 59.8814 1650.3 59.8814 1650.25 59.8814C1649.98 59.8814 1649.69 59.8814 1649.38 59.8814C1649.08 59.8672 1648.82 59.8529 1648.59 59.8387C1648.36 59.8245 1648.12 59.8103 1647.87 59.7961C1647.62 59.7818 1647.45 59.7747 1647.33 59.7747ZM1647.33 55.8067H1648.01C1648.37 55.8067 1648.67 55.7925 1648.91 55.7641C1649.15 55.7356 1649.42 55.6858 1649.7 55.6147C1650 55.5294 1650.24 55.4014 1650.43 55.2307C1650.62 55.0601 1650.81 54.8396 1650.98 54.5694C1651.15 54.2992 1651.28 53.9507 1651.36 53.5241C1651.45 53.0974 1651.49 52.5996 1651.49 52.0307V50.3454C1651.49 49.1081 1651.16 48.2476 1650.51 47.7641C1649.87 47.2663 1648.95 47.0174 1647.74 47.0174H1647.33V55.8067ZM1670.6 68.5427C1669.14 68.5427 1667.84 68.4005 1666.7 68.1161C1665.57 67.8316 1664.65 67.4476 1663.92 66.9641C1663.21 66.4805 1662.62 65.8832 1662.15 65.1721C1661.7 64.4467 1661.38 63.6858 1661.19 62.8894C1661.01 62.0929 1660.92 61.2112 1660.92 60.2441V43.0921H1668.51V59.2841C1668.51 61.0903 1668.7 62.3347 1669.07 63.0174C1669.45 63.6858 1670 64.0201 1670.73 64.0201C1671.13 64.0201 1671.48 63.9561 1671.78 63.8281C1672.07 63.6858 1672.35 63.4512 1672.61 63.1241C1672.86 62.7827 1673.06 62.2992 1673.18 61.6734C1673.33 61.0334 1673.4 60.2583 1673.4 59.3481V43.0921H1680.14V60.3721C1680.14 61.3249 1680.05 62.1854 1679.88 62.9534C1679.73 63.7214 1679.43 64.4681 1678.99 65.1934C1678.56 65.9045 1677.99 66.5018 1677.28 66.9854C1676.58 67.4547 1675.67 67.8316 1674.53 68.1161C1673.4 68.4005 1672.1 68.5427 1670.6 68.5427ZM1698.79 66.3241L1698.6 66.5587C1698.45 66.7009 1698.21 66.8858 1697.87 67.1134C1697.54 67.3267 1697.14 67.5472 1696.68 67.7747C1696.22 67.9881 1695.61 68.1658 1694.84 68.3081C1694.07 68.4645 1693.25 68.5427 1692.37 68.5427C1690.5 68.5427 1688.91 68.2369 1687.59 67.6254C1686.26 66.9996 1685.23 66.0965 1684.47 64.9161C1683.73 63.7214 1683.2 62.3774 1682.87 60.8841C1682.55 59.3765 1682.38 57.6343 1682.38 55.6574C1682.38 53.5525 1682.55 51.7392 1682.87 50.2174C1683.2 48.6814 1683.74 47.3374 1684.49 46.1854C1685.26 45.0192 1686.31 44.1445 1687.65 43.5614C1688.99 42.9783 1690.62 42.6867 1692.54 42.6867C1693.42 42.6867 1694.24 42.7649 1695.01 42.9214C1695.79 43.0778 1696.41 43.2556 1696.85 43.4547C1697.3 43.6538 1697.71 43.8814 1698.06 44.1374C1698.43 44.3934 1698.66 44.5712 1698.74 44.6707C1698.84 44.7703 1698.92 44.8485 1698.96 44.9054L1698.64 49.8121H1695.4L1694.29 47.2734C1694.03 47.2023 1693.82 47.1667 1693.65 47.1667C1692.69 47.1667 1691.96 47.3872 1691.45 47.8281C1690.94 48.2547 1690.55 49.1009 1690.28 50.3667C1690.01 51.6183 1689.87 53.4245 1689.87 55.7854C1689.87 57.1934 1689.96 58.4236 1690.13 59.4761C1690.31 60.5285 1690.53 61.3392 1690.79 61.9081C1691.04 62.4627 1691.35 62.9107 1691.7 63.2521C1692.06 63.5934 1692.38 63.8138 1692.66 63.9134C1692.95 63.9987 1693.25 64.0414 1693.58 64.0414C1694.31 64.0414 1695.07 63.9561 1695.86 63.7854C1696.66 63.6005 1697.32 63.3232 1697.83 62.9534L1698.79 66.3241ZM1704.66 68.0947V48.7454H1699.66V43.0921H1716.86V48.7454H1711.87V68.0947H1704.66ZM1718.81 68.0947V43.0921H1726.09V68.0947H1718.81ZM1736.23 58.4307C1736.23 60.7916 1736.41 62.4343 1736.77 63.3587C1737.14 64.2832 1737.78 64.7454 1738.69 64.7454C1739.35 64.7454 1739.86 64.5818 1740.2 64.2547C1740.54 63.9134 1740.8 63.2236 1740.97 62.1854C1741.15 61.1329 1741.25 59.5614 1741.25 57.4707V52.3294C1741.25 50.2956 1741.05 48.7809 1740.65 47.7854C1740.25 46.7898 1739.6 46.2921 1738.69 46.2921C1737.78 46.2921 1737.14 46.7827 1736.77 47.7641C1736.41 48.7312 1736.23 50.5018 1736.23 53.0761V58.4307ZM1738.24 68.5427C1737.06 68.5427 1735.99 68.4361 1735.04 68.2227C1734.1 68.0094 1733.29 67.7107 1732.61 67.3267C1731.92 66.9427 1731.33 66.4521 1730.81 65.8547C1730.32 65.2574 1729.91 64.6174 1729.6 63.9347C1729.3 63.2521 1729.06 62.4556 1728.87 61.5454C1728.69 60.6209 1728.56 59.7036 1728.49 58.7934C1728.42 57.8689 1728.38 56.8307 1728.38 55.6787C1728.38 53.9721 1728.47 52.4858 1728.64 51.2201C1728.82 49.9543 1729.16 48.7667 1729.64 47.6574C1730.12 46.5338 1730.76 45.6236 1731.56 44.9267C1732.37 44.2298 1733.41 43.6823 1734.68 43.2841C1735.96 42.8858 1737.46 42.6867 1739.2 42.6867C1740.39 42.6867 1741.47 42.8005 1742.42 43.0281C1743.37 43.2414 1744.19 43.5401 1744.87 43.9241C1745.56 44.3081 1746.15 44.8058 1746.64 45.4174C1747.16 46.0289 1747.56 46.6832 1747.86 47.3801C1748.17 48.0627 1748.42 48.8663 1748.61 49.7907C1748.79 50.7152 1748.92 51.6325 1748.99 52.5427C1749.06 53.4529 1749.1 54.4841 1749.1 55.6361C1749.1 57.3427 1749 58.8289 1748.82 60.0947C1748.63 61.3605 1748.3 62.5481 1747.82 63.6574C1747.33 64.7525 1746.69 65.6485 1745.88 66.3454C1745.06 67.0281 1744.02 67.5685 1742.74 67.9667C1741.47 68.3507 1739.97 68.5427 1738.24 68.5427ZM1758.1 68.0947H1751.31V45.0974L1750.27 43.0921H1758.12L1762.04 51.1987L1765.8 59.2841L1764.75 49.7907V43.0921H1771.56V68.0947H1765.05L1759.97 58.2174L1756.84 52.0307L1758.1 60.2227V68.0947Z" fill="#45293F"/>
</svg>
