<svg width="80" height="80" viewBox="0 0 80 80" fill="none" xmlns="http://www.w3.org/2000/svg">
<path fill-rule="evenodd" clip-rule="evenodd" d="M40.0003 2.5C18.8212 2.5 1.66699 19.6542 1.66699 40.8333C1.66699 57.7958 12.6399 72.1229 27.8774 77.2021C29.7941 77.5375 30.5128 76.3875 30.5128 75.3812C30.5128 74.4708 30.4649 71.4521 30.4649 68.2417C20.8337 70.0146 18.342 65.8937 17.5753 63.7375C17.1441 62.6354 15.2753 59.2333 13.6462 58.3229C12.3045 57.6042 10.3878 55.8312 13.5982 55.7833C16.617 55.7354 18.7732 58.5625 19.492 59.7125C22.942 65.5104 28.4524 63.8812 30.6566 62.875C30.992 60.3833 31.9982 58.7062 33.1003 57.7479C24.5712 56.7896 15.6587 53.4833 15.6587 38.8208C15.6587 34.6521 17.1441 31.2021 19.5878 28.5187C19.2045 27.5604 17.8628 23.6312 19.9712 18.3604C19.9712 18.3604 23.1816 17.3542 30.5128 22.2896C33.5795 21.4271 36.8378 20.9958 40.0962 20.9958C43.3545 20.9958 46.6128 21.4271 49.6795 22.2896C57.0107 17.3062 60.2212 18.3604 60.2212 18.3604C62.3295 23.6312 60.9878 27.5604 60.6045 28.5187C63.0482 31.2021 64.5337 34.6042 64.5337 38.8208C64.5337 53.5312 55.5732 56.7896 47.0441 57.7479C48.4337 58.9458 49.6316 61.2458 49.6316 64.8396C49.6316 69.9667 49.5837 74.0875 49.5837 75.3812C49.5837 76.3875 50.3024 77.5854 52.2191 77.2021C67.3607 72.1229 78.3337 57.7479 78.3337 40.8333C78.3337 19.6542 61.1795 2.5 40.0003 2.5V2.5Z" fill="white"/>
</svg>
