<svg width="86" height="80" viewBox="0 0 86 80" fill="none" xmlns="http://www.w3.org/2000/svg">
<g clip-path="url(#clip0_150_414)">
<path d="M43.0001 -0.356934C31.1014 -0.356934 14.871 -0.170339 11.578 0.123167C7.88252 2.34648 0.567318 10.7631 0.494141 12.9497V16.6186C0.494141 21.2523 4.82226 25.3249 8.74093 25.3249C13.4353 25.3249 17.3522 21.3991 17.3522 16.7691C17.3522 21.3991 21.1584 25.3249 25.8491 25.3249C30.58 25.3249 34.2388 21.4028 34.2388 16.7691C34.2388 21.3991 38.2263 25.3249 42.9572 25.3249H43.0358C47.7668 25.3249 51.7543 21.4028 51.7543 16.7691C51.7543 21.3991 55.4496 25.3249 60.144 25.3249C64.8383 25.3249 68.648 21.4028 68.648 16.7691C68.648 21.3991 72.5649 25.3249 77.2593 25.3249C81.1779 25.3249 85.4989 21.2523 85.4989 16.6186V12.9497C85.4257 10.7631 78.1105 2.34648 74.4151 0.123167C62.9188 -0.284073 54.8988 -0.356934 43.0001 -0.356934ZM34.0387 24.379C30.1859 31.0196 20.5064 31.0993 16.7304 24.422C14.4253 28.4284 9.20772 29.9753 6.9758 29.2159C6.32452 36.183 5.87516 71.9511 10.6061 77.9497C24.4989 81.1966 61.8965 81.1269 75.3941 77.9497C80.8641 72.3584 79.6391 35.6767 79.0244 29.2159C76.7925 29.9753 71.574 28.4284 69.3055 24.422C65.4893 31.0993 55.8107 31.0196 51.9615 24.379C50.7724 26.5436 48.0018 29.395 43.0001 29.395C39.3302 29.5381 35.8718 27.5526 34.0387 24.379ZM26.2421 32.6625C29.1692 32.6625 31.8408 32.6643 35.0606 36.2597C40.366 35.7094 45.6342 35.7094 50.9396 36.2597C54.196 32.701 56.831 32.6984 59.7581 32.6984C69.198 32.6984 71.4697 46.6761 74.8724 58.7098C77.9459 69.8998 73.8411 70.1964 68.7552 70.1964C61.1813 69.9029 56.9782 64.4002 56.9782 58.8603C49.9165 60.0343 38.6449 60.4746 29.022 58.8603C29.022 64.4002 24.8189 69.9029 17.245 70.1964C12.1591 70.1964 8.05431 69.8998 11.1278 58.7098C14.5305 46.6027 16.8022 32.6984 26.2421 32.6984V32.6625ZM43.0001 43.2176C43.0001 43.2176 36.8019 48.9499 35.6823 50.9494L39.7343 50.7989V54.3459C39.7343 54.5587 42.7293 54.3746 43.0001 54.3746C44.6356 54.4369 46.2659 54.4963 46.2659 54.3459V50.7989L50.3179 50.9494C49.1983 48.9462 43.0001 43.2176 43.0001 43.2176Z" fill="white"/>
</g>
<defs>
<clipPath id="clip0_150_414">
<rect width="86" height="80" fill="white"/>
</clipPath>
</defs>
</svg>
