<svg width="1025" height="1025" viewBox="0 0 1025 1025" fill="none" xmlns="http://www.w3.org/2000/svg">
<circle cx="512.5" cy="512.5" r="506" fill="#C7DCD0" stroke="#9BABB2" stroke-width="13"/>
<circle cx="840.5" cy="283.5" r="59" fill="#9BABB2" stroke="#C7DCD0" stroke-width="13"/>
<circle cx="236" cy="453" r="110.5" fill="#9BABB2" stroke="#C7DCD0" stroke-width="13"/>
<circle cx="336" cy="175" r="83.5" fill="#9BABB2" stroke="#C7DCD0" stroke-width="13"/>
<circle cx="601" cy="336" r="72.5" fill="#9BABB2" stroke="#C7DCD0" stroke-width="13"/>
<circle cx="786.5" cy="174.5" r="31" fill="#9BABB2" stroke="#C7DCD0" stroke-width="13"/>
<circle cx="538.5" cy="150.5" r="31" fill="#9BABB2" stroke="#C7DCD0" stroke-width="13"/>
<circle cx="943.5" cy="432.5" r="31" fill="#9BABB2" stroke="#C7DCD0" stroke-width="13"/>
<circle cx="198.5" cy="249.5" r="31" fill="#9BABB2" stroke="#C7DCD0" stroke-width="13"/>
<circle cx="463.5" cy="397.5" r="31" fill="#9BABB2" stroke="#C7DCD0" stroke-width="13"/>
<circle cx="170.5" cy="684.5" r="59" transform="rotate(180 170.5 684.5)" fill="#9BABB2" stroke="#C7DCD0" stroke-width="13"/>
<circle cx="773" cy="557" r="110.5" transform="rotate(180 773 557)" fill="#9BABB2" stroke="#C7DCD0" stroke-width="13"/>
<circle cx="419" cy="779" r="110.5" transform="rotate(180 419 779)" fill="#9BABB2" stroke="#C7DCD0" stroke-width="13"/>
<circle cx="715" cy="854" r="83.5" transform="rotate(180 715 854)" fill="#9BABB2" stroke="#C7DCD0" stroke-width="13"/>
<circle cx="508" cy="583" r="72.5" transform="rotate(180 508 583)" fill="#9BABB2" stroke="#C7DCD0" stroke-width="13"/>
<circle cx="264.5" cy="854.5" r="31" transform="rotate(180 264.5 854.5)" fill="#9BABB2" stroke="#C7DCD0" stroke-width="13"/>
<circle cx="484.5" cy="967.5" r="31" transform="rotate(180 484.5 967.5)" fill="#9BABB2" stroke="#C7DCD0" stroke-width="13"/>
<path d="M871.5 777.874C854.379 777.874 840.5 763.994 840.5 746.874C840.5 729.753 854.379 715.874 871.5 715.874C888.621 715.874 902.5 729.753 902.5 746.874C902.5 763.994 888.621 777.874 871.5 777.874Z" fill="#9BABB2" stroke="#C7DCD0" stroke-width="13"/>
<circle cx="600.5" cy="763.5" r="31" transform="rotate(180 600.5 763.5)" fill="#9BABB2" stroke="#C7DCD0" stroke-width="13"/>
</svg>
